<?xml version="1.0" encoding="UTF-8"?>
<svg id="Layer_2" data-name="Layer 2" xmlns="http://www.w3.org/2000/svg" viewBox="0 0 250 250">
  <defs>
    <style>
      .cls-1 {
        fill: #fff;
      }

      .cls-2 {
        fill: #26a8e0;
      }
    </style>
  </defs>
  <g id="Layer_2-2" data-name="Layer 2">
    <circle class="cls-2" cx="125" cy="125" r="125"/>
    <path class="cls-1" d="M157.82,138.75c-1.73,4.15-4.28,8.04-7.65,11.42-6.72,6.72-15.66,10.42-25.16,10.42s-18.44-3.7-25.16-10.42c-13.88-13.88-13.88-36.45,0-50.33,6.72-6.72,15.66-10.42,25.16-10.42s18.44,3.7,25.16,10.42c2.05,2.05,3.79,4.29,5.23,6.67l34.04-21.01c-3.04-4.96-6.69-9.64-10.99-13.94-14.76-14.76-34.1-22.14-53.45-22.14s-38.69,7.38-53.45,22.14c-29.52,29.52-29.52,77.38,0,106.9,14.76,14.76,34.1,22.14,53.45,22.14s38.69-7.38,53.45-22.14c6.94-6.94,12.23-14.9,15.91-23.4l-36.54-16.3Z"/>
  </g>
</svg>