<?xml version="1.0" encoding="UTF-8"?>
<svg id="Layer_2" data-name="Layer 2" xmlns="http://www.w3.org/2000/svg" viewBox="0 0 160.61 26.3">
  <defs>
    <style>
      .cls-1 {
        fill: #29abe2;
      }
    </style>
  </defs>
  <g id="Layer_6" data-name="Layer 6">
    <g>
      <path class="cls-1" d="M0,13.19C-.04,3.53,10.23-2.32,19.28,1.1c.23.09.58.17.5.48-.15,1.04-.81,5.68-.96,6.72-.02.16-.07.22-.27.14-1.28-.59-2.69-1.03-4.12-1.1-3.42-.27-6.61,1.95-6.75,5.54-.24,3.87,3.05,6.43,6.71,6.17,1.26-.06,2.74-.44,4.16-1.14.18-.06.53-.33.61-.12.19,1.14.82,5.7.98,6.8.05.35-.26.37-.62.55C10.5,28.91-.05,23.13,0,13.23v-.03Z"/>
      <path class="cls-1" d="M20.01,17.33c0-6.16,5.91-9.98,11.67-8.77,4.56.87,7.85,4.98,7.36,9.67-1.34,11.16-18.77,10.52-19.03-.87v-.03ZM32.44,17.3c.03-2.02-2-3.42-3.88-2.75-2.55.89-2.52,4.71.06,5.55,1.88.63,3.85-.77,3.82-2.77v-.03Z"/>
      <path class="cls-1" d="M39.9.71c1.91-.19,5.59-.58,7.18-.71.1.97,0,20.31.03,24.79,0,.48,0,.79,0,.88-.01.05-.06.04-.12.04-1.26.01-4.94,0-6.51,0-.31,0-.49,0-.56,0-.04,0-.05-.02-.05-.04,0-.37-.04-20.09.03-24.96h0Z"/>
      <path class="cls-1" d="M48.15.71c1.91-.19,5.59-.58,7.18-.71.1.97,0,20.31.03,24.79,0,.48,0,.79,0,.88-.01.05-.06.04-.12.04-1.26.01-4.94,0-6.51,0-.31,0-.49,0-.56,0-.04,0-.05-.02-.05-.04,0-.37-.04-20.09.03-24.96h0Z"/>
      <path class="cls-1" d="M66.83,25.56c-.18-.5-.22-.88-.78-.44-2.73,1.98-7.2,1.36-9.08-1.53-1.19-1.75-1.26-4.22-.13-6,1.25-2.07,3.9-2.97,6.21-2.83.73.03,1.45.14,2.31.38.23.05.57.18.75.02.08-.08.06-.24.03-.35-.31-1.44-2.58-1.64-3.99-1.58-.9.03-1.85.16-2.8.39-.24.04-.73.27-.69-.13.11-.9.44-3.04.56-3.93.03-.24.12-.42.37-.49,2-.48,3.89-.58,5.86-.49,5.52.27,7.75,3,7.44,7.83.01,3.05-.07,6.09.12,8.99,0,.15.01.34-.18.33-.75,0-4.75,0-5.7,0-.12,0-.21-.02-.27-.14v-.02ZM66.4,20.12c.02-1.36-1.63-2.07-2.73-1.42-1.16.61-1.09,2.42.11,2.94,1.1.55,2.63-.17,2.62-1.48v-.03Z"/>
      <path class="cls-1" d="M85.17,8.56c.14.03.18.11.19.24,0,.89,0,4.49,0,5.56.01.31-.12.37-.54.4-3.39.22-4.07,2.36-3.93,5.4,0,1.58,0,3.39,0,4.99,0,.06,0,.12,0,.17,0,.41.03.4-.3.4-1.22,0-2.46,0-3.7,0-1.17,0-1.97,0-2.91,0-.35,0-.33.01-.33-.15,0-1.41,0-15.05,0-16.19,0-.1.02-.1.16-.12,1.78-.16,5.2-.5,6.51-.61.2,0,.14.25.15.4,0,.4,0,1.22,0,1.7.01.09-.02.34.07.34.08-.04.19-.27.27-.37.81-1.39,2.53-2.22,4.35-2.15h.02Z"/>
      <path class="cls-1" d="M110.86,8.94c-.22.95-4.01,16.01-4.37,16.77-1.4.02-4.43,0-5.56,0-.22-.01-.37.06-.43-.14-.18-.58-1.71-5.72-2.17-7.21-.01-.03-.02-.03-.04,0-.59,1.9-1.49,4.97-2.12,7.03-.1.33-.06.32-.44.32-.6,0-1.19,0-1.81,0-1.19-.02-2.8.04-3.85-.02-.32-1.04-3.85-14.91-4.3-16.58-.04-.18-.1-.18.24-.18.1,0,.19,0,.29,0,1.63,0,3.7,0,5.39,0,.11,0,.21,0,.31,0,.37,0,.31-.01.39.36.45,2.19.96,5.13,1.43,7.18.55-1.71,1.66-5.43,2.12-6.91.05-.17.09-.31.12-.41.04-.1.04-.17.13-.21.74-.06,2.98,0,4.07-.02.16,0,.2.01.25.14.24.77,2.06,6.73,2.26,7.36.03.09.04.05.06-.01.12-.58.95-4.87,1.3-6.65.05-.26.09-.46.12-.59.03-.17.05-.25.22-.24.74,0,4.86-.02,6.39.01h0Z"/>
      <path class="cls-1" d="M109.75,17.33c0-6.16,5.91-9.98,11.67-8.77,4.56.87,7.85,4.98,7.36,9.67-1.34,11.16-18.77,10.52-19.03-.87v-.03ZM122.18,17.3c.02-1.99-1.94-3.4-3.82-2.77-2.58.83-2.61,4.66-.06,5.55,1.88.68,3.91-.73,3.88-2.75v-.03Z"/>
      <path class="cls-1" d="M140.89,8.56c.14.03.18.11.19.24,0,.89,0,4.49,0,5.56.01.31-.12.37-.54.4-3.39.22-4.07,2.36-3.93,5.4,0,1.58,0,3.39,0,4.99,0,.06,0,.12,0,.17,0,.41.03.4-.3.4-1.22,0-2.46,0-3.7,0-1.17,0-1.97,0-2.91,0-.35,0-.33.01-.33-.15,0-1.41,0-15.05,0-16.19,0-.1.02-.1.16-.12,1.78-.16,5.2-.5,6.51-.61.2,0,.14.25.15.4,0,.4,0,1.22,0,1.7.01.09-.02.34.07.34.08-.04.19-.27.27-.37.81-1.39,2.53-2.22,4.35-2.15h.02Z"/>
      <path class="cls-1" d="M152.51,25.69c-.42-.65-3.09-5.83-3.56-6.62-.08.36,0,5.44-.03,6.42,0,.08,0,.14-.03.19-.03.03-.08.03-.17.03-.97-.01-5.34.02-7.02,0-.09-.95-.08-24.16,0-25,1.49-.16,3.88-.39,5.57-.55.66-.07,1.19-.12,1.44-.14.12-.01.18-.02.2,0,.04,1.04,0,14.35.02,15.13.4-.53,3.11-5.52,3.48-6.12.07-.1.1-.1.24-.11.13,0,.36,0,.66,0,2.08.01,4.93-.03,7.02.01-.23.55-3.84,6.02-5.05,7.98-.06.08-.02.14.02.22.55.94,5.05,7.98,5.31,8.57-1.16.03-2.52,0-3.89.01-1.34-.01-3.17.03-4.2-.02h0Z"/>
    </g>
  </g>
</svg>