<?xml version="1.0" encoding="UTF-8"?>
<svg id="Layer_2" data-name="Layer 2" xmlns="http://www.w3.org/2000/svg" viewBox="0 0 160.61 46.08">
  <defs>
    <style>
      .cls-1 {
        fill: #29abe2;
      }
    </style>
  </defs>
  <g id="Layer_6" data-name="Layer 6">
    <g>
      <g>
        <path class="cls-1" d="M0,13.19C-.04,3.53,10.23-2.32,19.28,1.1c.23.09.58.17.5.48-.15,1.04-.81,5.68-.96,6.72-.02.16-.07.22-.27.14-1.28-.59-2.69-1.03-4.12-1.1-3.42-.27-6.61,1.95-6.75,5.54-.24,3.87,3.05,6.43,6.71,6.17,1.26-.06,2.74-.44,4.16-1.14.18-.06.53-.33.61-.12.19,1.14.82,5.7.98,6.8.05.35-.26.37-.62.55C10.5,28.91-.05,23.13,0,13.23v-.03Z"/>
        <path class="cls-1" d="M20.01,17.33c0-6.16,5.91-9.98,11.67-8.77,4.56.87,7.85,4.98,7.36,9.67-1.34,11.16-18.77,10.52-19.03-.87v-.03ZM32.44,17.3c.03-2.02-2-3.42-3.88-2.75-2.55.89-2.52,4.71.06,5.55,1.88.63,3.85-.77,3.82-2.77v-.03Z"/>
        <path class="cls-1" d="M39.9.71c1.91-.19,5.59-.58,7.18-.71.1.97,0,20.31.03,24.79,0,.48,0,.79,0,.88-.01.05-.06.04-.12.04-1.26.01-4.94,0-6.51,0-.31,0-.49,0-.56,0-.04,0-.05-.02-.05-.04,0-.37-.04-20.09.03-24.96h0Z"/>
        <path class="cls-1" d="M48.15.71c1.91-.19,5.59-.58,7.18-.71.1.97,0,20.31.03,24.79,0,.48,0,.79,0,.88-.01.05-.06.04-.12.04-1.26.01-4.94,0-6.51,0-.31,0-.49,0-.56,0-.04,0-.05-.02-.05-.04,0-.37-.04-20.09.03-24.96h0Z"/>
        <path class="cls-1" d="M66.83,25.56c-.18-.5-.22-.88-.78-.44-2.73,1.98-7.2,1.36-9.08-1.53-1.19-1.75-1.26-4.22-.13-6,1.25-2.07,3.9-2.97,6.21-2.83.73.03,1.45.14,2.31.38.23.05.57.18.75.02.08-.08.06-.24.03-.35-.31-1.44-2.58-1.64-3.99-1.58-.9.03-1.85.16-2.8.39-.24.04-.73.27-.69-.13.11-.9.44-3.04.56-3.93.03-.24.12-.42.37-.49,2-.48,3.89-.58,5.86-.49,5.52.27,7.75,3,7.44,7.83.01,3.05-.07,6.09.12,8.99,0,.15.01.34-.18.33-.75,0-4.75,0-5.7,0-.12,0-.21-.02-.27-.14v-.02ZM66.4,20.12c.02-1.36-1.63-2.07-2.73-1.42-1.16.61-1.09,2.42.11,2.94,1.1.55,2.63-.17,2.62-1.48v-.03Z"/>
        <path class="cls-1" d="M85.17,8.56c.14.03.18.11.19.24,0,.89,0,4.49,0,5.56.01.31-.12.37-.54.4-3.39.22-4.07,2.36-3.93,5.4,0,1.58,0,3.39,0,4.99,0,.06,0,.12,0,.17,0,.41.03.4-.3.4-1.22,0-2.46,0-3.7,0-1.17,0-1.97,0-2.91,0-.35,0-.33.01-.33-.15,0-1.41,0-15.05,0-16.19,0-.1.02-.1.16-.12,1.78-.16,5.2-.5,6.51-.61.2,0,.14.25.15.4,0,.4,0,1.22,0,1.7.01.09-.02.34.07.34.08-.04.19-.27.27-.37.81-1.39,2.53-2.22,4.35-2.15h.02Z"/>
        <path class="cls-1" d="M110.86,8.94c-.22.95-4.01,16.01-4.37,16.77-1.4.02-4.43,0-5.56,0-.22-.01-.37.06-.43-.14-.18-.58-1.71-5.72-2.17-7.21-.01-.03-.02-.03-.04,0-.59,1.9-1.49,4.97-2.12,7.03-.1.33-.06.32-.44.32-.6,0-1.19,0-1.81,0-1.19-.02-2.8.04-3.85-.02-.32-1.04-3.85-14.91-4.3-16.58-.04-.18-.1-.18.24-.18.1,0,.19,0,.29,0,1.63,0,3.7,0,5.39,0,.11,0,.21,0,.31,0,.37,0,.31-.01.39.36.45,2.19.96,5.13,1.43,7.18.55-1.71,1.66-5.43,2.12-6.91.05-.17.09-.31.12-.41.04-.1.04-.17.13-.21.74-.06,2.98,0,4.07-.02.16,0,.2.01.25.14.24.77,2.06,6.73,2.26,7.36.03.09.04.05.06-.01.12-.58.95-4.87,1.3-6.65.05-.26.09-.46.12-.59.03-.17.05-.25.22-.24.74,0,4.86-.02,6.39.01h0Z"/>
        <path class="cls-1" d="M109.75,17.33c0-6.16,5.91-9.98,11.67-8.77,4.56.87,7.85,4.98,7.36,9.67-1.34,11.16-18.77,10.52-19.03-.87v-.03ZM122.18,17.3c.02-1.99-1.94-3.4-3.82-2.77-2.58.83-2.61,4.66-.06,5.55,1.88.68,3.91-.73,3.88-2.75v-.03Z"/>
        <path class="cls-1" d="M140.89,8.56c.14.03.18.11.19.24,0,.89,0,4.49,0,5.56.01.31-.12.37-.54.4-3.39.22-4.07,2.36-3.93,5.4,0,1.58,0,3.39,0,4.99,0,.06,0,.12,0,.17,0,.41.03.4-.3.4-1.22,0-2.46,0-3.7,0-1.17,0-1.97,0-2.91,0-.35,0-.33.01-.33-.15,0-1.41,0-15.05,0-16.19,0-.1.02-.1.16-.12,1.78-.16,5.2-.5,6.51-.61.2,0,.14.25.15.4,0,.4,0,1.22,0,1.7.01.09-.02.34.07.34.08-.04.19-.27.27-.37.81-1.39,2.53-2.22,4.35-2.15h.02Z"/>
        <path class="cls-1" d="M152.51,25.69c-.42-.65-3.09-5.83-3.56-6.62-.08.36,0,5.44-.03,6.42,0,.08,0,.14-.03.19-.03.03-.08.03-.17.03-.97-.01-5.34.02-7.02,0-.09-.95-.08-24.16,0-25,1.49-.16,3.88-.39,5.57-.55.66-.07,1.19-.12,1.44-.14.12-.01.18-.02.2,0,.04,1.04,0,14.35.02,15.13.4-.53,3.11-5.52,3.48-6.12.07-.1.1-.1.24-.11.13,0,.36,0,.66,0,2.08.01,4.93-.03,7.02.01-.23.55-3.84,6.02-5.05,7.98-.06.08-.02.14.02.22.55.94,5.05,7.98,5.31,8.57-1.16.03-2.52,0-3.89.01-1.34-.01-3.17.03-4.2-.02h0Z"/>
      </g>
      <g>
        <path class="cls-1" d="M33.44,38.8c.56,0,1.04.08,1.44.25.4.16.73.39,1,.69s.48.64.62,1.02l-1.41.56c-.12-.43-.32-.76-.58-.99-.27-.23-.61-.34-1.04-.34s-.78.1-1.08.29-.53.47-.68.83c-.15.36-.23.81-.23,1.34s.08.97.24,1.33c.16.36.39.64.69.83s.65.28,1.06.28c.32,0,.59-.05.83-.16.23-.11.43-.26.58-.46.15-.2.26-.45.31-.74l1.36.46c-.13.42-.33.79-.61,1.1s-.62.55-1.03.73c-.41.17-.88.26-1.41.26-.69,0-1.3-.14-1.83-.43-.53-.29-.94-.71-1.24-1.25s-.44-1.2-.44-1.95.15-1.41.44-1.95.7-.96,1.23-1.25,1.13-.43,1.8-.43Z"/>
        <path class="cls-1" d="M38.29,45.94v-7h1.27l.14,1.26c.19-.46.46-.8.83-1.04.37-.24.82-.36,1.37-.36.14,0,.28.01.42.03.14.02.26.06.35.11l-.21,1.32c-.1-.04-.22-.07-.34-.09-.13-.02-.3-.03-.51-.03-.29,0-.57.08-.85.23s-.51.38-.69.69c-.18.31-.27.7-.27,1.18v3.71h-1.5Z"/>
        <path class="cls-1" d="M46.98,46.08c-.7,0-1.32-.14-1.85-.43-.53-.29-.94-.71-1.24-1.25s-.44-1.2-.44-1.95.15-1.41.44-1.95.7-.96,1.22-1.25,1.12-.43,1.78-.43,1.26.14,1.74.42c.48.28.84.66,1.09,1.15s.38,1.04.38,1.65c0,.17,0,.33-.01.48,0,.15-.02.28-.04.39h-5.63v-1.15h4.97l-.74.22c0-.63-.16-1.12-.48-1.46-.32-.34-.75-.51-1.3-.51-.4,0-.75.09-1.05.28s-.53.46-.69.83c-.16.37-.24.82-.24,1.35s.08.97.25,1.33c.17.36.41.64.71.83s.67.28,1.09.28c.47,0,.84-.09,1.13-.27.29-.18.52-.42.69-.74l1.19.56c-.17.34-.39.63-.68.88s-.62.44-1.01.57c-.39.13-.82.2-1.29.2Z"/>
        <path class="cls-1" d="M56.04,41.45c0-.47-.13-.83-.38-1.08s-.61-.38-1.06-.38c-.42,0-.78.1-1.08.29-.3.2-.52.51-.66.95l-1.26-.53c.18-.57.53-1.03,1.04-1.37.52-.34,1.19-.52,2.01-.52.56,0,1.05.09,1.48.27.43.18.77.46,1.02.82.25.36.37.83.37,1.4v3.12c0,.35.17.52.52.52.17,0,.33-.02.49-.07l-.08,1.04c-.21.1-.49.15-.81.15-.3,0-.57-.05-.8-.16s-.42-.27-.56-.49c-.14-.22-.2-.49-.2-.82v-.1h.31c-.08.35-.26.65-.52.89-.26.24-.57.42-.91.53-.35.12-.7.17-1.05.17-.44,0-.83-.07-1.18-.21-.35-.14-.62-.35-.83-.64-.2-.28-.3-.64-.3-1.06,0-.52.17-.95.51-1.29s.82-.56,1.45-.69l2.72-.53v1.05s-1.99.41-1.99.41c-.39.08-.69.18-.88.32-.2.14-.29.35-.29.62s.1.47.3.62c.2.15.47.23.8.23.23,0,.46-.03.68-.08.22-.06.42-.15.6-.27.18-.13.31-.29.41-.49.1-.2.15-.44.15-.72v-1.9Z"/>
        <path class="cls-1" d="M64.14,38.94v1.18h-5.25v-1.18h5.25ZM61.74,36.89v6.96c0,.34.09.6.27.76.18.16.43.24.74.24.25,0,.47-.04.66-.12s.36-.19.52-.33l.34,1.09c-.21.19-.48.33-.79.44-.31.11-.66.16-1.04.16s-.77-.07-1.11-.2c-.34-.13-.6-.34-.78-.64s-.29-.68-.29-1.15v-6.79l1.5-.42Z"/>
        <path class="cls-1" d="M66.38,37.77c-.33,0-.58-.08-.75-.25s-.26-.39-.26-.69.09-.53.26-.69c.17-.16.42-.24.75-.24s.56.08.74.24c.17.16.26.39.26.69s-.09.53-.26.69c-.17.16-.42.25-.74.25ZM67.13,38.94v7h-1.5v-7h1.5Z"/>
        <path class="cls-1" d="M74.07,38.94h1.57l-2.79,7h-1.64l-2.8-7h1.64l1.99,5.7,2.03-5.7Z"/>
        <path class="cls-1" d="M79.95,46.08c-.7,0-1.32-.14-1.85-.43-.53-.29-.94-.71-1.24-1.25s-.44-1.2-.44-1.95.15-1.41.44-1.95.7-.96,1.22-1.25,1.12-.43,1.78-.43,1.26.14,1.74.42c.48.28.84.66,1.09,1.15s.38,1.04.38,1.65c0,.17,0,.33-.01.48,0,.15-.02.28-.04.39h-5.63v-1.15h4.97l-.74.22c0-.63-.16-1.12-.48-1.46-.32-.34-.75-.51-1.3-.51-.4,0-.75.09-1.05.28s-.53.46-.69.83c-.16.37-.24.82-.24,1.35s.08.97.25,1.33c.17.36.41.64.71.83s.67.28,1.09.28c.47,0,.84-.09,1.13-.27.29-.18.52-.42.69-.74l1.19.56c-.17.34-.39.63-.68.88s-.62.44-1.01.57c-.39.13-.82.2-1.29.2Z"/>
        <path class="cls-1" d="M92.17,46.08c-.7,0-1.34-.13-1.92-.41-.58-.27-1.04-.65-1.37-1.15l1.04-.9c.21.38.5.69.89.92.39.23.85.34,1.39.34.43,0,.77-.08,1.02-.22.25-.15.38-.36.38-.63,0-.18-.06-.33-.17-.47-.12-.13-.34-.24-.67-.32l-1.47-.31c-.75-.15-1.28-.39-1.6-.72s-.48-.75-.48-1.27c0-.38.11-.74.34-1.06s.55-.59.99-.79c.43-.2.95-.3,1.56-.3.7,0,1.3.12,1.79.37.5.25.87.6,1.13,1.06l-1.04.87c-.18-.37-.44-.65-.78-.83-.35-.18-.71-.27-1.08-.27-.3,0-.56.04-.77.11s-.38.18-.49.31c-.11.13-.17.29-.17.46,0,.19.07.35.21.49.14.14.39.25.76.32l1.6.34c.67.13,1.15.35,1.42.67s.41.69.41,1.14-.12.84-.35,1.18c-.23.34-.57.6-1.01.79s-.96.28-1.57.28Z"/>
        <path class="cls-1" d="M101.37,38.94v1.18h-5.25v-1.18h5.25ZM98.96,36.89v6.96c0,.34.09.6.27.76.18.16.43.24.74.24.25,0,.47-.04.66-.12s.36-.19.52-.33l.34,1.09c-.21.19-.48.33-.79.44-.31.11-.66.16-1.04.16s-.77-.07-1.11-.2c-.34-.13-.6-.34-.78-.64s-.29-.68-.29-1.15v-6.79l1.5-.42Z"/>
        <path class="cls-1" d="M105.35,46.08c-.46,0-.88-.08-1.27-.25-.39-.17-.7-.44-.93-.81s-.35-.86-.35-1.46v-4.62h1.5v4.24c0,.63.14,1.07.41,1.31.27.24.65.36,1.13.36.23,0,.46-.04.68-.12.22-.08.42-.21.59-.38.18-.17.32-.39.41-.67s.15-.59.15-.95v-3.79h1.5v7h-1.32l-.07-1.13c-.24.44-.57.76-.98.97-.41.21-.9.31-1.46.31Z"/>
        <path class="cls-1" d="M114.19,46.08c-.58,0-1.1-.14-1.57-.43-.47-.29-.84-.71-1.11-1.25s-.41-1.19-.41-1.95.14-1.45.43-1.99c.29-.54.68-.95,1.16-1.24s1.02-.43,1.6-.43,1.1.16,1.51.49c.41.33.69.75.83,1.27l-.17.15v-4.93h1.5v10.15h-1.33l-.11-1.9h.2c-.07.43-.22.8-.46,1.1-.24.3-.54.54-.9.7-.36.16-.74.25-1.16.25ZM114.51,44.88c.4,0,.75-.1,1.04-.31s.51-.49.67-.87c.16-.37.24-.82.24-1.34,0-.49-.08-.9-.24-1.25s-.38-.62-.67-.8c-.28-.19-.61-.28-.99-.28-.62,0-1.11.21-1.46.64-.35.43-.52,1.02-.52,1.78s.17,1.35.5,1.79c.34.43.81.65,1.41.65Z"/>
        <path class="cls-1" d="M121.04,37.77c-.33,0-.58-.08-.75-.25s-.26-.39-.26-.69.09-.53.26-.69c.17-.16.42-.24.75-.24s.56.08.74.24c.17.16.26.39.26.69s-.09.53-.26.69c-.17.16-.42.25-.74.25ZM121.78,38.94v7h-1.5v-7h1.5Z"/>
        <path class="cls-1" d="M127.16,38.8c.68,0,1.28.14,1.81.43s.93.71,1.23,1.25c.29.55.44,1.2.44,1.95s-.15,1.41-.44,1.95c-.29.55-.7.96-1.23,1.25s-1.12.43-1.81.43-1.28-.14-1.81-.43c-.52-.29-.93-.71-1.23-1.25s-.45-1.2-.45-1.95.15-1.41.45-1.95.71-.96,1.23-1.25c.52-.29,1.12-.43,1.81-.43ZM127.16,39.98c-.42,0-.78.1-1.07.29s-.52.47-.68.83c-.16.36-.24.81-.24,1.34s.08.97.24,1.34c.16.37.38.65.68.84s.65.29,1.07.29.77-.1,1.06-.29.51-.47.67-.84c.16-.37.24-.81.24-1.34s-.08-.98-.24-1.34c-.16-.36-.38-.64-.67-.83s-.64-.29-1.06-.29Z"/>
      </g>
    </g>
  </g>
</svg>